<svg id="Layer_5" enable-background="new 0 0 64 64" height="512" viewBox="0 0 64 64" width="512" xmlns="http://www.w3.org/2000/svg"><path d="m24 32v6h-22v-2c0-2.21 1.79-4 4-4h5 6z" fill="#aab2bd"/><path d="m62 36v2h-22v-6h7 6 5c2.21 0 4 1.79 4 4z" fill="#aab2bd"/><path d="m16.16 56.88 3.84 5.12h-14c-2.21 0-4-1.79-4-4v-20l6 8-1.22 1.22c-.5.5-.78 1.18-.78 1.89 0 .58.19 1.14.54 1.6l4.66 6.22c.5.67 1.3 1.07 2.14 1.07h.03c.41 0 .82-.1 1.2-.28l1.43-.72z" fill="#e6e9ed"/><path d="m62 38v20c0 2.21-1.79 4-4 4h-14l3.84-5.12.16.12 1.43.72c.38.18.79.28 1.2.28h.03c.84 0 1.64-.4 2.14-1.07l4.66-6.22c.35-.46.54-1.02.54-1.6 0-.71-.28-1.39-.78-1.89l-1.22-1.22z" fill="#e6e9ed"/><path d="m62 38-6 8-8.16 10.88-3.84 5.12h-24l-3.84-5.12-8.16-10.88-6-8h22v6c0 2.21.9 4.21 2.34 5.66 1.45 1.44 3.45 2.34 5.66 2.34 4.42 0 8-3.58 8-8v-6z" fill="#ccd1d9"/><path d="m8 46 8.16 10.88-.16.12-1.43.72c-.38.18-.79.28-1.2.28h-.03c-.84 0-1.64-.4-2.14-1.07l-4.66-6.22c-.35-.46-.54-1.02-.54-1.6 0-.71.28-1.39.78-1.89z" fill="#b4dd7f"/><path d="m50.66 58h-.03c-.41 0-.82-.1-1.2-.28l-1.43-.72-.16-.12 8.16-10.88 1.22 1.22c.5.5.78 1.18.78 1.89 0 .58-.19 1.14-.54 1.6l-4.66 6.22c-.5.67-1.3 1.07-2.14 1.07z" fill="#b4dd7f"/><path d="m40 32v6 6c0 4.42-3.58 8-8 8-2.21 0-4.21-.9-5.66-2.34-1.44-1.45-2.34-3.45-2.34-5.66v-6-6h5 6z" fill="#ff826e"/><circle cx="32" cy="44" fill="#69d6f4" r="4"/><g fill="#ffeaa7"><path d="m16 22.79v3.21h-4v-2l-9.66-18.89c-.62-.92-.37-2.16.55-2.78.33-.21.72-.33 1.11-.33.67 0 1.29.33 1.66.89z"/><path d="m35 22v10h-6v-10l1-2v-16c0-.55.22-1.05.59-1.41.36-.37.86-.59 1.41-.59 1.1 0 2 .9 2 2v16z"/><path d="m61.11 2.33c.92.62 1.17 1.86.55 2.78l-9.66 18.89v2h-4v-3.21l10.34-19.9c.37-.56.99-.89 1.66-.89.39 0 .78.12 1.11.33z"/></g><path d="m17 26v6h-6v-6h1 4z" fill="#fcd770"/><path d="m53 26v6h-6v-6h1 4z" fill="#fcd770"/><path d="m58 31h-4v-6h-.999v-.759l9.531-18.63c.872-1.372.49-3.204-.872-4.111-.494-.327-1.068-.5-1.66-.5-1.008 0-1.94.5-2.496 1.338l-10.503 20.207v2.455h-1.001v6h-10v-9.236l-1-2v-15.764c0-1.654-1.346-3-3-3s-3 1.346-3 3v15.764l-1 2v9.236h-10v-6h-1.001v-2.455l-10.448-20.115-.055-.092c-.556-.838-1.488-1.338-2.496-1.338-.592 0-1.166.173-1.662.502-1.36.905-1.742 2.737-.87 4.109l9.531 18.63v.759h-.999v6h-4c-2.757 0-5 2.243-5 5v22c0 2.757 2.243 5 5 5h52c2.757 0 5-2.243 5-5v-22c0-2.757-2.243-5-5-5zm-1.491 16.923c.316.316.491.738.491 1.185 0 .36-.119.718-.335 1.006l-4.661 6.215c-.463.615-1.394.857-2.122.494l-.545-.273 6.771-9.028zm-13.009 13.077h-23l-16.5-22h19v5c0 4.963 4.037 9 9 9s9-4.037 9-9v-5h19zm-36.009-13.077.401-.401 6.771 9.029-.544.273c-.655.324-1.635.156-2.123-.493l-4.661-6.217c-.216-.288-.335-.645-.335-1.006 0-.447.175-.869.491-1.185zm17.509-14.923h14v11c0 3.859-3.141 7-7 7s-7-3.141-7-7zm36 3v1h-20v-4h17c1.654 0 3 1.346 3 3zm-11.999-12.967 10.194-19.626c.302-.414.93-.525 1.357-.241.461.307.586.93.28 1.389l-9.832 19.204v1.241h-2v-1.967zm-1.001 3.967h4v4h-4zm-18-4.764 1-2v-16.236c0-.552.448-1 1-1s1 .448 1 1v16.236l1 2v8.764h-4zm-26.774-17.582-.059-.1c-.306-.458-.181-1.081.278-1.386.433-.289 1.058-.175 1.359.239l10.194 19.626v1.967h-2v-1.241zm8.774 22.346h4v4h-4zm-6 6h17v4h-20v-1c0-1.654 1.346-3 3-3zm-3 25v-17.001l3.68 4.907-.603.603c-.694.694-1.077 1.618-1.077 2.599 0 .791.261 1.574.735 2.205l4.661 6.217c.691.92 1.791 1.47 2.972 1.47.567 0 1.136-.134 1.645-.388l.87-.435 2.117 2.823h-12c-1.654 0-3-1.346-3-3zm55 3h-12l2.117-2.823.871.436c.508.253 1.076.387 1.674.387 1.15 0 2.25-.55 2.941-1.471l4.661-6.215c.475-.631.736-1.415.736-2.206 0-.981-.383-1.905-1.077-2.6l-.603-.603 3.68-4.906v17.001c0 1.654-1.346 3-3 3z"/><path d="m32 49c2.757 0 5-2.243 5-5s-2.243-5-5-5-5 2.243-5 5 2.243 5 5 5zm0-8c1.654 0 3 1.346 3 3s-1.346 3-3 3-3-1.346-3-3 1.346-3 3-3z"/><path d="m31 35h2v2h-2z"/><path d="m35 35h2v2h-2z"/><path d="m27 35h2v2h-2z"/><path d="m25 55h2v2h-2z"/><path d="m29 55h2v2h-2z"/><path d="m21 55h2v2h-2z"/><path d="m33 55h2v2h-2z"/><path d="m41 55h2v2h-2z"/><path d="m37 55h2v2h-2z"/><path d="m17 41h2v2h-2z"/><path d="m9 41h2v2h-2z"/><path d="m13 41h2v2h-2z"/><path d="m53 41h2v2h-2z"/><path d="m49 41h2v2h-2z"/><path d="m45 41h2v2h-2z"/></svg>